PathFileType	4	(X/Y/Z)	C:\Users\Basilio\Documents\Thesis Gigler\squatting_fais\c3dfiles\019\SLS_front_pre2\markers_experimental.trc
DataRate	CameraRate	NumFrames	NumMarkers	Units	OrigDataRate	OrigDataStartFrame	OrigNumFrames
200.000000	200.000000	4	59	mm	200.000000	419	1677
Frame#	Time	FHD			LBHD			RBHD			C7			T10			CLAV			LSHO			LUUPA			LMUPA			LDUPA			LLEP			LMEP			LRAD			LUL			LRFIN			RSHO			RUPA1			RMUPA			RDUPA			RLEP			RMEP			RRAD			RUL			RUFIN			LASI			RASI			USACR			LSACR			RSACR			LTHI1			LTHI2			LTHI3			LTHI4			LLFC			LTIB1			LTIB2			LTIB3			LTIB4			LLMAL			LMMAL			LHEE			LMT1			LMT2			LMT5			RTHI2			RTHI3			RTHI4			RLFC			RTIB1			RTIB2			RTIB3			RTIB4			RLMAL			RMMAL			RHEE			RMT1			RMT2			RMT5			RTHI			
		X1	Y1	Z1	X2	Y2	Z2	X3	Y3	Z3	X4	Y4	Z4	X5	Y5	Z5	X6	Y6	Z6	X7	Y7	Z7	X8	Y8	Z8	X9	Y9	Z9	X10	Y10	Z10	X11	Y11	Z11	X12	Y12	Z12	X13	Y13	Z13	X14	Y14	Z14	X15	Y15	Z15	X16	Y16	Z16	X17	Y17	Z17	X18	Y18	Z18	X19	Y19	Z19	X20	Y20	Z20	X21	Y21	Z21	X22	Y22	Z22	X23	Y23	Z23	X24	Y24	Z24	X25	Y25	Z25	X26	Y26	Z26	X27	Y27	Z27	X28	Y28	Z28	X29	Y29	Z29	X30	Y30	Z30	X31	Y31	Z31	X32	Y32	Z32	X33	Y33	Z33	X34	Y34	Z34	X35	Y35	Z35	X36	Y36	Z36	X37	Y37	Z37	X38	Y38	Z38	X39	Y39	Z39	X40	Y40	Z40	X41	Y41	Z41	X42	Y42	Z42	X43	Y43	Z43	X44	Y44	Z44	X45	Y45	Z45	X46	Y46	Z46	X47	Y47	Z47	X48	Y48	Z48	X49	Y49	Z49	X50	Y50	Z50	X51	Y51	Z51	X52	Y52	Z52	X53	Y53	Z53	X54	Y54	Z54	X55	Y55	Z55	X56	Y56	Z56	X57	Y57	Z57	X58	Y58	Z58	X59	Y59	Z59	

420	2.095	-306.0239257812501	1722.273193359375	-639.9517211914064	-431.3462219238282	1688.61474609375	-785.1430664062502	-436.8348083496095	1681.118286132813	-645.4191894531251	-450.0592346191407	1499.637939453125	-706.6204833984376	-452.514129638672	1208.180908203125	-711.2150878906251	-305.6041564941407	1480.01953125	-714.3348388671876	-377.3155212402344	1518.468139648438	-848.9851074218752	-246.9454193115235	1498.352416992188	-905.2803955078127	-217.6282501220704	1492.00341796875	-861.7168579101565	-180.5957946777344	1497.6474609375	-907.4614257812502	-109.2936477661133	1473.11669921875	-942.451354980469	-108.7825469970703	1413.8369140625	-932.027038574219	141.3240051269532	1473.18017578125	-857.656921386719	137.7988586425782	1480.9013671875	-924.9808349609377	212.2765350341797	1487.672729492188	-854.4016113281252	-362.7431335449219	1509.205322265625	-581.6853637695314	-234.9783172607422	1448.507690429688	-483.2059326171876	-212.2678680419922	1477.677612304688	-516.4677734375001	-165.556381225586	1449.484741210938	-481.7672424316407	-90.45565795898439	1452.622924804688	-493.2601318359376	-96.471794128418	1392.965942382813	-507.7881164550782	145.2837982177735	1484.163208007813	-575.7883911132814	155.1670074462891	1488.043334960938	-510.553192138672	231.9674530029297	1502.209716796875	-574.1900634765626	-285.3830566406251	1019.809814453125	-840.234313964844	-270.4452819824219	1006.160888671875	-629.7487182617189	-441.8829040527345	1075.736328125	-719.6606445312501	-447.1445312500001	1043.947265625	-749.0844116210939	-441.6294555664064	1042.774780273438	-691.6640014648439	-311.9454345703126	765.4380493164064	-938.3787231445315	-263.4770202636719	694.9356689453126	-946.337097167969	-219.4509735107422	704.5645751953126	-928.8723754882815	-281.8063049316407	636.8095092773439	-942.4741821289065	-275.5186462402344	541.4252319335939	-942.974060058594	-251.120346069336	393.4208984375001	-929.0400390625002	-309.5279846191407	369.5863342285157	-990.7755126953127	-276.1371154785157	355.9218444824219	-966.1164550781252	-297.3736267089844	273.8025817871094	-943.8674926757815	-393.1739501953126	169.029541015625	-987.7440185546877	-371.4120483398438	158.8333587646485	-908.3179931640627	-464.0221252441407	142.1715087890625	-939.596862792969	-258.7598876953126	63.52191543579103	-939.0289306640627	-259.4277038574219	68.50064086914064	-979.1182861328127	-311.0218811035157	63.07696533203126	-1029.262329101563	-266.6667175292969	751.8306274414064	-582.9812622070314	-242.9941101074219	756.5710449218751	-607.1548461914064	-293.8446350097657	671.4613647460939	-589.7266845703126	-333.3227233886719	511.7135314941407	-631.1145019531251	-299.1289367675782	335.0579528808594	-707.3336791992189	-351.8528137207032	251.0570831298829	-656.5747680664064	-320.2979736328126	252.1259918212891	-691.2218627929689	-331.6777343750001	214.1239929199219	-735.3293457031251	-392.7525939941407	128.0437622070313	-698.1776733398439	-377.3852539062501	136.0751037597657	-771.951843261719	-456.3925781250001	107.2537155151367	-749.3029785156251	-258.0468139648438	55.91101837158205	-775.9927368164065	-253.8412322998047	59.89702606201173	-730.4727783203126	-292.7738037109376	50.08282852172853	-675.3021240234376	-307.1461486816407	799.4311523437502	-571.4514160156251	
421	2.1	-305.7668457031251	1722.092529296875	-639.7880249023439	-431.0996704101564	1688.5361328125	-785.1265258789065	-436.6546020507814	1681.032836914063	-645.3133544921876	-449.8137207031251	1499.552856445313	-706.6110839843751	-452.2820434570314	1208.134887695313	-711.3182373046876	-305.2865905761719	1479.955444335938	-714.3804931640626	-377.2142333984376	1518.4013671875	-848.8997802734377	-246.8648834228516	1498.269409179688	-905.3889770507815	-219.9858093261719	1492.033813476563	-862.7310791015627	-180.4591522216797	1497.49169921875	-907.6270141601565	-109.1820220947266	1472.869140625	-942.5581054687502	-108.7489013671875	1413.619873046875	-932.1258544921877	141.3589324951172	1473.035278320313	-857.6336059570315	137.8688659667969	1480.688110351563	-924.811950683594	212.3456573486329	1487.575073242188	-854.116149902344	-362.5459899902344	1509.218872070313	-581.7853393554689	-234.8121948242188	1448.5791015625	-483.1468200683595	-212.1080474853516	1477.662719726563	-516.3586425781251	-165.3941802978516	1449.52001953125	-481.6734619140626	-90.28091430664064	1452.743896484375	-493.1654357910157	-96.36408233642581	1393.158935546875	-507.8261108398439	145.5467834472657	1484.359985351563	-575.6166992187501	155.3029937744141	1488.048217773438	-510.5205993652345	232.0953979492188	1502.1806640625	-574.2324218750001	-285.3334045410157	1019.651550292969	-840.2551269531252	-270.2710571289063	1006.134033203125	-629.7483520507814	-441.8215637207032	1075.696044921875	-719.7433471679689	-446.8041992187501	1043.849365234375	-749.0831909179689	-441.5694580078126	1042.73046875	-691.7028198242189	-311.9298400878907	765.2573242187501	-938.3562011718752	-263.4094238281251	694.7785034179689	-946.3553466796877	-219.4525146484376	704.4614868164064	-928.8967895507815	-281.7810974121094	636.6613159179689	-942.464538574219	-275.3845214843751	541.2949218750001	-942.892272949219	-251.0507812500001	393.2853393554689	-929.0805664062502	-309.6221923828126	369.4770812988282	-990.741638183594	-276.1229553222657	355.7637939453126	-966.1057739257815	-297.2696228027344	273.6955566406251	-943.8267822265627	-393.2114562988282	168.9287261962891	-987.6561279296877	-371.4008178710938	158.7742462158203	-908.2783203125002	-464.0615234375001	142.0694885253907	-939.442565917969	-258.7067565917969	63.43455505371095	-939.0491333007815	-259.4012451171876	68.48480224609376	-979.099548339844	-310.9835815429688	62.9735679626465	-1029.208862304688	-266.5228271484376	751.8065185546876	-582.9390258789064	-242.8537139892579	756.5806274414064	-607.0966186523439	-293.7332458496094	671.4490966796876	-589.7634277343751	-333.2100219726563	511.7206420898439	-631.1577148437501	-299.0592041015626	335.0423583984376	-707.4101562500001	-351.7406616210938	251.0818786621094	-656.6013183593751	-320.2388000488282	252.1228790283204	-691.3110961914064	-331.6372070312501	214.0901641845704	-735.4034423828126	-392.6717529296876	128.0469818115235	-698.1832885742189	-377.3887023925782	136.0579528808594	-771.9702758789065	-456.4244995117189	107.2256698608399	-749.3446044921876	-257.9802856445313	55.85407638549806	-776.0064697265627	-253.8632202148438	59.87524795532228	-730.5240478515626	-292.8182373046876	50.08290100097658	-675.3230590820314	-307.0972595214844	799.466247558594	-571.3940429687501	
422	2.105	-305.5365295410157	1722.152465820313	-639.9196166992189	-430.8514099121095	1688.50830078125	-785.0518188476565	-436.4378051757814	1681.009033203125	-645.3085937500001	-449.683319091797	1499.492553710938	-706.6517333984376	-452.1961059570314	1208.1162109375	-711.4058227539064	-305.0446777343751	1479.946411132813	-714.4240722656251	-376.9527282714844	1518.342529296875	-848.8081665039065	-246.687484741211	1498.096069335938	-905.4771118164065	-219.8900909423829	1492.042724609375	-862.8547363281252	-180.2850646972657	1497.269287109375	-907.7004394531252	-108.9515686035157	1472.5185546875	-942.679870605469	-108.5866928100586	1413.37158203125	-932.0795898437502	141.4302368164063	1472.83056640625	-857.5457153320315	137.7435913085938	1480.311767578125	-925.0235595703127	212.2562866210938	1487.488037109375	-853.9338378906252	-362.2785644531251	1509.30615234375	-581.8955078125001	-234.7089843750001	1448.58251953125	-483.0908203125001	-211.9665069580079	1477.703857421875	-516.3979492187501	-165.3287506103516	1449.511840820313	-481.5781555175782	-90.18727874755861	1452.731323242188	-493.0870361328126	-96.2661056518555	1393.073608398438	-507.5352783203126	145.4523162841797	1484.123901367188	-575.7017822265626	155.4116973876953	1488.1484375	-510.4658508300782	232.1230010986329	1502.1923828125	-574.2899169921876	-285.2434387207032	1019.484741210938	-840.2897949218752	-270.2173156738282	1006.116088867188	-629.8006591796876	-441.7498168945314	1075.607543945313	-719.8398437500001	-446.5206298828126	1043.66064453125	-749.1162109375001	-441.3967285156251	1042.716674804688	-691.7029418945314	-311.9456481933594	765.0194091796876	-938.315856933594	-263.4265441894532	694.6435546875001	-946.3413696289065	-219.4809265136719	704.3400268554689	-928.906921386719	-281.6428222656251	636.4940795898439	-942.4426879882815	-275.2967529296876	541.1785888671876	-942.9024658203127	-250.9245300292969	393.1497192382814	-929.0923461914065	-309.5657958984376	369.3030700683594	-990.740173339844	-276.0978698730469	355.6199340820313	-966.1075439453127	-297.1596374511719	273.5650329589844	-943.875183105469	-393.2508850097657	168.8963165283203	-987.5865478515627	-371.4452209472657	158.6929931640625	-908.1885986328127	-464.015350341797	141.9741516113282	-939.3173828125002	-262.8795776367188	63.15187835693361	-940.7564086914065	-259.2440795898438	68.32798767089845	-979.049011230469	-311.0553283691407	62.93170166015626	-1029.187377929688	-266.4005126953126	751.7797851562501	-582.9002685546876	-242.7021789550782	756.5773315429689	-607.0904541015626	-293.6859130859376	671.4066772460939	-589.7612915039064	-333.0850524902344	511.6868286132814	-631.2227172851564	-298.9831237792969	335.0621337890626	-707.5109863281251	-351.6312866210938	251.0844116210938	-656.6503906250001	-320.1954650878907	252.1396942138672	-691.4478149414064	-331.6052246093751	214.0987548828126	-735.4780273437501	-392.6527709960939	128.1012268066407	-698.2337646484376	-377.3575439453126	136.0508422851563	-772.0529785156252	-456.4439697265626	107.223861694336	-749.3437500000001	-258.0514526367188	55.82910919189455	-775.9934692382815	-253.8775177001954	59.90388870239259	-730.5172119140626	-292.8295288085938	50.09624099731447	-675.3283691406251	-306.9748840332032	799.4639892578127	-571.3373413085939	
423	2.11	-305.3318176269532	1721.875854492188	-639.4105224609376	-430.6708374023439	1688.4404296875	-785.0447998046877	-436.2149047851564	1680.959350585938	-645.2487792968751	-449.3838195800782	1499.500854492188	-706.6505126953126	-452.0565490722657	1208.087524414063	-711.5140991210939	-304.8728332519532	1479.979125976563	-714.4302978515626	-376.8443298339844	1518.306518554688	-848.8447875976565	-246.6981048583985	1497.982421875	-905.6237792968752	-219.9906311035157	1492.073364257813	-863.2878417968752	-180.1714019775391	1497.10791015625	-907.8836669921877	-108.7947311401367	1472.237426757813	-942.7568969726565	-108.5139617919922	1413.124755859375	-932.1517333984377	141.3897705078125	1472.646606445313	-857.508483886719	137.6568298339844	1479.904663085938	-925.0344848632815	212.1833648681641	1487.376342773438	-853.6533813476565	-362.1356506347657	1509.26611328125	-581.9111328125001	-234.5375366210938	1448.602172851563	-483.0735778808595	-211.7786407470704	1477.699829101563	-516.1804199218751	-165.239501953125	1449.559692382813	-481.5150451660157	-90.09240722656251	1452.6767578125	-492.9139709472657	-96.15543365478518	1393.011474609375	-507.4260253906251	145.8556671142578	1484.283203125	-575.5799560546876	155.5721740722657	1488.203369140625	-510.4725952148439	231.5948333740235	1502.432006835938	-574.4051513671876	-285.2217102050782	1019.346130371094	-840.340515136719	-270.2273864746094	1006.127258300781	-629.8417358398439	-441.6257629394532	1075.583740234375	-719.8827514648439	-446.4552307128907	1043.657470703125	-749.1521606445314	-441.4502258300782	1042.723754882813	-691.6925659179689	-311.9211425781251	764.8684692382814	-938.2996215820315	-263.5292968750001	694.5462646484376	-946.3562011718752	-219.4334869384766	704.1741943359376	-928.919860839844	-281.6505432128907	636.3252563476564	-942.432312011719	-275.2817382812501	541.0367431640626	-942.884216308594	-250.8129577636719	393.0238037109376	-929.1504516601565	-309.5406494140626	369.1495056152344	-990.7164306640627	-275.9686584472657	355.5442199707032	-966.1300048828127	-297.0733337402344	273.4444580078126	-943.8350830078127	-393.3125610351564	168.8208160400391	-987.4902343750002	-371.4656066894532	158.6066589355469	-908.218688964844	-464.0911254882814	141.8817596435547	-939.2479248046877	-262.8601074218751	63.1185989379883	-940.7534179687502	-259.2001342773438	68.31172180175783	-979.0030517578127	-311.1150207519532	62.85544204711915	-1029.226196289063	-266.2637634277344	751.8059082031251	-582.9209594726564	-242.6607360839844	756.5430908203126	-607.0686035156251	-293.5475769042969	671.4100952148439	-589.7145385742189	-332.9893493652344	511.6561889648439	-631.2331542968751	-298.9216308593751	334.9850769042969	-707.5664672851564	-351.5471191406251	251.0198211669922	-656.6795043945314	-320.0834960937501	252.0697937011719	-691.4045410156251	-331.5465393066407	214.1376037597657	-735.4980468750001	-392.6697998046876	128.1052398681641	-698.2818603515626	-377.3724060058594	136.0521087646485	-772.0642089843752	-456.4018859863282	107.2942504882813	-749.3511352539064	-257.9824829101563	55.79890441894533	-776.039978027344	-253.8213043212891	59.83267974853517	-730.5620727539064	-292.7957153320313	50.10509490966798	-675.3186645507814	-306.8451232910157	799.4431152343752	-571.3287353515626	
